<svg aria-hidden="true" style="position: absolute; width: 0; height: 0; overflow: hidden;" version="1.1" xmlns="http://www.w3.org/2000/svg" xmlns:xlink="http://www.w3.org/1999/xlink">
<defs>
<symbol id="icon-header-delivery" viewBox="0 0 52 32">
<path fill="#80233a" style="fill: var(--color1, #80233a)" d="M39.574 11.388c-0.335 0-0.607 0.272-0.607 0.607v5.911c0 0.335 0.271 0.607 0.607 0.607h8.347c0.227 0 0.435-0.127 0.539-0.329s0.087-0.445-0.044-0.63l-4.204-5.911c-0.114-0.16-0.298-0.255-0.494-0.255h-4.144zM40.182 12.602h3.223l3.34 4.696h-6.564v-4.696h0.001z"></path>
<path fill="#80233a" style="fill: var(--color1, #80233a)" d="M3.252 0c-1.786 0-3.252 1.465-3.252 3.252v21.071c0 1.786 1.465 3.252 3.252 3.252h4.248c0.406 2.249 2.379 3.967 4.745 3.967 2.365 0 4.34-1.717 4.747-3.967h22.189c0.406 2.25 2.383 3.967 4.747 3.967s4.34-1.717 4.747-3.967h0.968c1.41 0 2.563-1.159 2.563-2.563v-7.768h0.001c0.011-0.087 0.003-0.175-0.023-0.259-0.003-0.013-0.007-0.025-0.012-0.037h-0.001c0 0 0-0-0-0-0.027-0.077-0.070-0.147-0.125-0.207l-6.527-9.057c-0.114-0.158-0.297-0.252-0.492-0.252l-8.465-0.005v-4.17c0-1.786-1.465-3.252-3.252-3.252l-30.056-0.002zM3.252 1.214h30.056c1.126 0 2.038 0.911 2.038 2.038v23.109h-18.29c-0.184-2.495-2.274-4.472-4.81-4.472s-4.626 1.977-4.81 4.472h-4.183c-1.126 0-2.038-0.911-2.038-2.038v-21.071c0-1.126 0.911-2.038 2.038-2.038l-0-0zM36.559 8.636l8.154 0.005 6.278 8.711v7.658c0 0.741-0.602 1.349-1.349 1.349h-0.905c-0.184-2.495-2.274-4.472-4.81-4.472s-4.626 1.977-4.81 4.472h-2.558v-17.724zM12.245 23.102c1.999 0 3.609 1.61 3.609 3.616v0.068c-0.036 1.967-1.631 3.542-3.609 3.542-1.999 0-3.603-1.604-3.609-3.597v-0.010c0-2.006 1.61-3.616 3.609-3.616v-0.002zM43.928 23.102c1.999 0 3.609 1.61 3.609 3.616 0 2-1.61 3.609-3.609 3.609s-3.609-1.61-3.609-3.609c0-2.006 1.61-3.616 3.609-3.616z"></path>
</symbol>
<symbol id="icon-applepay" viewBox="0 0 46 32">
<path d="M12.354 10.613c0.387-0.482 0.643-1.129 0.578-1.79-0.558 0.026-1.247 0.37-1.641 0.852-0.361 0.416-0.669 1.090-0.591 1.724 0.63 0.053 1.26-0.317 1.654-0.786zM12.925 11.525c-0.555-0.032-1.061 0.168-1.47 0.33-0.263 0.104-0.486 0.192-0.656 0.192-0.19 0-0.422-0.093-0.683-0.197-0.341-0.137-0.732-0.293-1.141-0.285-0.938 0.013-1.811 0.548-2.29 1.4-0.984 1.704-0.256 4.227 0.696 5.614 0.466 0.687 1.024 1.44 1.759 1.413 0.323-0.012 0.556-0.112 0.797-0.214 0.277-0.118 0.565-0.241 1.015-0.241 0.434 0 0.709 0.12 0.973 0.235 0.251 0.109 0.493 0.214 0.851 0.208 0.761-0.013 1.24-0.687 1.706-1.374 0.503-0.737 0.724-1.457 0.757-1.566l0.004-0.013c-0.001-0.001-0.007-0.004-0.018-0.009-0.168-0.077-1.453-0.669-1.465-2.256-0.012-1.332 1.019-2.007 1.181-2.113 0.010-0.006 0.017-0.011 0.020-0.013-0.656-0.977-1.68-1.083-2.034-1.11zM18.195 19.905v-10.296h3.839c1.982 0 3.367 1.374 3.367 3.381s-1.411 3.395-3.419 3.395h-2.198v3.52h-1.588zM19.783 10.957h1.831c1.378 0 2.166 0.74 2.166 2.041s-0.788 2.047-2.172 2.047h-1.824v-4.088zM30.644 18.671c-0.42 0.806-1.345 1.314-2.343 1.314-1.477 0-2.507-0.885-2.507-2.219 0-1.321 0.997-2.080 2.842-2.193l1.982-0.119v-0.568c0-0.839-0.545-1.294-1.516-1.294-0.801 0-1.385 0.416-1.503 1.050h-1.431c0.046-1.334 1.293-2.305 2.979-2.305 1.818 0 2.999 0.958 2.999 2.444v5.125h-1.47v-1.235h-0.033zM28.728 18.763c-0.847 0-1.385-0.409-1.385-1.037 0-0.647 0.518-1.024 1.509-1.083l1.765-0.112v0.581c0 0.964-0.814 1.651-1.89 1.651zM37.023 20.308c-0.637 1.803-1.365 2.397-2.914 2.397-0.118 0-0.512-0.013-0.604-0.040v-1.235c0.098 0.013 0.341 0.026 0.466 0.026 0.702 0 1.096-0.297 1.339-1.070l0.144-0.456-2.691-7.496h1.66l1.87 6.082h0.033l1.87-6.082h1.614l-2.789 7.872z"></path>
</symbol>
<symbol id="icon-burger-menu" viewBox="0 0 41 32">
<path fill="#80233a" style="fill: var(--color1, #80233a); stroke: var(--color2, #fff)" stroke="#fff" stroke-linejoin="miter" stroke-linecap="butt" stroke-miterlimit="4" stroke-width="0.3765" d="M3.064 5.412h35.281c0.649 0 1.176-0.791 1.175-1.765s-0.528-1.765-1.177-1.765h-35.281c-0.649 0-1.176 0.791-1.175 1.765s0.528 1.765 1.177 1.765z"></path>
<path fill="#80233a" style="fill: var(--color1, #80233a); stroke: var(--color2, #fff)" stroke="#fff" stroke-linejoin="miter" stroke-linecap="butt" stroke-miterlimit="4" stroke-width="0.3765" d="M38.344 14.235h-35.281c-0.649 0-1.176 0.791-1.175 1.765s0.528 1.765 1.177 1.765h35.281c0.649 0 1.176-0.791 1.175-1.765s-0.528-1.765-1.177-1.765z"></path>
<path fill="#80233a" style="fill: var(--color1, #80233a); stroke: var(--color2, #fff)" stroke="#fff" stroke-linejoin="miter" stroke-linecap="butt" stroke-miterlimit="4" stroke-width="0.3765" d="M38.344 26.588h-23.52c-0.649 0-1.176 0.791-1.175 1.765s0.528 1.765 1.177 1.765h23.521c0.649 0 1.176-0.791 1.175-1.765s-0.527-1.765-1.177-1.765z"></path>
</symbol>
<symbol id="icon-paypal" viewBox="0 0 45 32">
<path fill="#28356a" style="fill: var(--color3, #28356a)" d="M20.782 16.065l0.196-1.259-0.437-0.010h-2.086l1.45-9.288c0.004-0.028 0.019-0.054 0.040-0.073s0.049-0.029 0.077-0.029h3.517c1.168 0 1.974 0.245 2.394 0.73 0.197 0.227 0.323 0.465 0.384 0.726 0.064 0.274 0.065 0.602 0.003 1.002l-0.004 0.029v0.256l0.197 0.113c0.166 0.089 0.298 0.191 0.399 0.308 0.169 0.194 0.278 0.442 0.324 0.734 0.048 0.301 0.032 0.66-0.046 1.066-0.090 0.467-0.235 0.873-0.432 1.206-0.181 0.307-0.411 0.561-0.684 0.758-0.261 0.187-0.571 0.329-0.922 0.42-0.34 0.089-0.727 0.134-1.152 0.134h-0.274c-0.196 0-0.386 0.071-0.535 0.199-0.15 0.13-0.249 0.308-0.279 0.503l-0.021 0.113-0.347 2.219-0.016 0.081c-0.004 0.026-0.011 0.039-0.022 0.047-0.009 0.008-0.023 0.013-0.036 0.013h-1.69z"></path>
<path fill="#298fc2" style="fill: var(--color4, #298fc2)" d="M26.7 7.923c-0.010 0.068-0.022 0.137-0.036 0.208-0.464 2.406-2.051 3.238-4.077 3.238h-1.032c-0.248 0-0.457 0.182-0.495 0.429l-0.678 4.346c-0.025 0.162 0.099 0.308 0.261 0.308h1.83c0.217 0 0.401-0.159 0.435-0.375l0.018-0.094 0.345-2.21 0.022-0.121c0.034-0.217 0.218-0.376 0.435-0.376h0.274c1.773 0 3.161-0.727 3.567-2.833 0.169-0.879 0.082-1.614-0.367-2.13-0.136-0.156-0.304-0.285-0.501-0.39z"></path>
<path fill="#22284f" style="fill: var(--color5, #22284f)" d="M26.215 7.728c-0.071-0.021-0.144-0.040-0.219-0.057s-0.153-0.031-0.232-0.044c-0.278-0.045-0.583-0.067-0.91-0.067h-2.757c-0.068 0-0.132 0.016-0.19 0.044-0.127 0.062-0.222 0.183-0.244 0.332l-0.587 3.754-0.017 0.109c0.039-0.247 0.247-0.429 0.495-0.429h1.032c2.027 0 3.614-0.832 4.077-3.238 0.014-0.071 0.026-0.141 0.036-0.208-0.117-0.063-0.244-0.117-0.381-0.163-0.034-0.011-0.069-0.022-0.104-0.033z"></path>
<path fill="#28356a" style="fill: var(--color3, #28356a)" d="M21.663 7.936c0.023-0.149 0.117-0.271 0.244-0.332 0.058-0.028 0.122-0.044 0.19-0.044h2.757c0.327 0 0.631 0.022 0.91 0.067 0.079 0.013 0.157 0.028 0.232 0.044s0.148 0.036 0.219 0.057c0.035 0.011 0.070 0.022 0.104 0.033 0.137 0.046 0.264 0.1 0.381 0.163 0.138-0.889-0.001-1.495-0.477-2.043-0.525-0.604-1.471-0.862-2.683-0.862h-3.517c-0.247 0-0.459 0.182-0.497 0.429l-1.465 9.384c-0.029 0.186 0.113 0.353 0.298 0.353h2.171l1.132-7.249z"></path>
<path fill="#28356a" style="fill: var(--color3, #28356a)" d="M10.419 18.62h-2.564c-0.175 0-0.325 0.129-0.352 0.304l-1.037 6.645c-0.021 0.131 0.080 0.249 0.212 0.249h1.224c0.175 0 0.325-0.129 0.352-0.304l0.28-1.792c0.027-0.175 0.177-0.304 0.352-0.304h0.812c1.689 0 2.664-0.826 2.919-2.463 0.115-0.716 0.005-1.279-0.327-1.673-0.364-0.433-1.011-0.662-1.869-0.662zM10.715 21.047c-0.14 0.93-0.843 0.93-1.523 0.93h-0.387l0.271-1.737c0.016-0.105 0.106-0.182 0.211-0.182h0.177c0.463 0 0.9 0 1.126 0.267 0.135 0.159 0.176 0.396 0.124 0.722z"></path>
<path fill="#28356a" style="fill: var(--color3, #28356a)" d="M18.15 20.966h-1.228c-0.105 0-0.195 0.077-0.211 0.182l-0.054 0.347-0.086-0.126c-0.266-0.39-0.859-0.52-1.45-0.52-1.357 0-2.516 1.039-2.742 2.495-0.117 0.727 0.049 1.422 0.457 1.906 0.374 0.446 0.91 0.631 1.547 0.631 1.093 0 1.7-0.71 1.7-0.71l-0.055 0.345c-0.021 0.132 0.080 0.25 0.211 0.25h1.106c0.176 0 0.324-0.129 0.352-0.304l0.664-4.247c0.021-0.131-0.079-0.249-0.21-0.249zM16.438 23.382c-0.118 0.709-0.675 1.185-1.385 1.185-0.357 0-0.642-0.116-0.825-0.335-0.181-0.217-0.25-0.527-0.193-0.872 0.111-0.703 0.677-1.194 1.376-1.194 0.349 0 0.632 0.117 0.819 0.338 0.187 0.223 0.261 0.535 0.208 0.878z"></path>
<path fill="#28356a" style="fill: var(--color3, #28356a)" d="M24.596 21.073h-1.234c-0.118 0-0.228 0.059-0.295 0.158l-1.702 2.533-0.721-2.434c-0.045-0.152-0.184-0.257-0.342-0.257h-1.213c-0.147 0-0.25 0.146-0.203 0.286l1.359 4.031-1.278 1.823c-0.101 0.144 0.001 0.341 0.174 0.341h1.233c0.117 0 0.226-0.058 0.293-0.155l4.104-5.987c0.098-0.143-0.003-0.339-0.175-0.339z"></path>
<path fill="#298fc2" style="fill: var(--color4, #298fc2)" d="M28.71 18.62h-2.565c-0.175 0-0.324 0.129-0.352 0.304l-1.037 6.645c-0.021 0.131 0.080 0.249 0.211 0.249h1.316c0.122 0 0.227-0.090 0.246-0.213l0.294-1.884c0.027-0.175 0.177-0.304 0.352-0.304h0.811c1.69 0 2.664-0.826 2.919-2.463 0.115-0.716 0.005-1.279-0.327-1.673-0.364-0.433-1.010-0.662-1.869-0.662zM29.006 21.047c-0.14 0.93-0.843 0.93-1.523 0.93h-0.387l0.272-1.737c0.016-0.105 0.105-0.182 0.211-0.182h0.177c0.463 0 0.9 0 1.126 0.267 0.135 0.159 0.175 0.396 0.124 0.722z"></path>
<path fill="#298fc2" style="fill: var(--color4, #298fc2)" d="M36.439 20.966h-1.227c-0.105 0-0.195 0.077-0.211 0.182l-0.054 0.347-0.086-0.126c-0.266-0.39-0.858-0.52-1.45-0.52-1.357 0-2.516 1.039-2.741 2.495-0.117 0.727 0.049 1.422 0.457 1.906 0.375 0.446 0.91 0.631 1.547 0.631 1.093 0 1.7-0.71 1.7-0.71l-0.055 0.345c-0.021 0.132 0.080 0.25 0.212 0.25h1.106c0.175 0 0.324-0.129 0.352-0.304l0.664-4.247c0.020-0.131-0.080-0.249-0.212-0.249zM34.727 23.382c-0.118 0.709-0.675 1.185-1.386 1.185-0.356 0-0.642-0.116-0.825-0.335-0.181-0.217-0.25-0.527-0.193-0.872 0.111-0.703 0.677-1.194 1.376-1.194 0.349 0 0.632 0.117 0.819 0.338 0.188 0.223 0.262 0.535 0.208 0.878z"></path>
<path fill="#298fc2" style="fill: var(--color4, #298fc2)" d="M37.785 18.802l-1.053 6.766c-0.021 0.131 0.080 0.249 0.211 0.249h1.058c0.176 0 0.325-0.129 0.352-0.304l1.038-6.645c0.021-0.131-0.080-0.25-0.211-0.25h-1.185c-0.105 0-0.195 0.078-0.211 0.183z"></path>
</symbol>
<symbol id="icon-visa" viewBox="0 0 46 32">
<path fill="#15195a" style="fill: var(--color6, #15195a)" d="M20.311 21.754h-3.046l1.905-10.991h3.046l-1.905 10.991z"></path>
<path fill="#15195a" style="fill: var(--color6, #15195a)" d="M31.352 11.031c-0.601-0.222-1.554-0.468-2.732-0.468-3.008 0-5.126 1.497-5.139 3.636-0.025 1.579 1.516 2.455 2.669 2.982 1.178 0.538 1.579 0.889 1.579 1.368-0.012 0.736-0.952 1.076-1.829 1.076-1.216 0-1.868-0.175-2.858-0.585l-0.401-0.176-0.426 2.467c0.714 0.304 2.030 0.573 3.397 0.585 3.196 0 5.276-1.473 5.301-3.754 0.012-1.251-0.802-2.21-2.556-2.993-1.065-0.503-1.718-0.842-1.718-1.357 0.012-0.468 0.552-0.947 1.754-0.947 0.99-0.024 1.718 0.199 2.269 0.421l0.275 0.117 0.414-2.373z"></path>
<path fill="#15195a" style="fill: var(--color6, #15195a)" d="M36.804 10.763h2.356l2.457 10.991h-2.82c0 0-0.276-1.263-0.363-1.649h-3.91c-0.113 0.292-0.639 1.649-0.639 1.649h-3.196l4.524-10.079c0.313-0.713 0.865-0.912 1.592-0.912zM36.616 14.785c0 0-0.965 2.444-1.216 3.075h2.532c-0.125-0.549-0.702-3.181-0.702-3.181l-0.213-0.947c-0.090 0.244-0.219 0.579-0.307 0.805-0.059 0.153-0.099 0.256-0.094 0.247z"></path>
<path fill="#15195a" style="fill: var(--color6, #15195a)" d="M11.739 18.258l2.983-7.495h3.221l-4.787 10.98h-3.221l-2.715-9.55c-0.937-0.511-2.006-0.922-3.201-1.207l0.050-0.222h4.9c0.664 0.023 1.203 0.222 1.379 0.924l1.065 5.050c0 0 0 0.001 0 0.001l0.326 1.52z"></path>
</symbol>
<symbol id="icon-mastercard" viewBox="0 0 47 32">
<path fill="#ff5f00" style="fill: var(--color7, #ff5f00)" d="M27.749 23.109h-8.294v-14.726h8.294v14.726z"></path>
<path fill="#eb001b" style="fill: var(--color8, #eb001b)" d="M19.986 15.745c0-2.987 1.416-5.648 3.62-7.363-1.612-1.254-3.647-2.002-5.858-2.002-5.235 0-9.478 4.193-9.478 9.365s4.243 9.365 9.478 9.365c2.211 0 4.246-0.748 5.858-2.002-2.205-1.715-3.62-4.376-3.62-7.363z"></path>
<path fill="#f79e1b" style="fill: var(--color9, #f79e1b)" d="M38.935 15.745c0 5.172-4.243 9.365-9.478 9.365-2.211 0-4.246-0.748-5.859-2.002 2.205-1.715 3.621-4.376 3.621-7.363s-1.416-5.648-3.621-7.363c1.613-1.254 3.647-2.002 5.859-2.002 5.235 0 9.478 4.193 9.478 9.365z"></path>
</symbol>
<symbol id="icon-phone" viewBox="0 0 32 32">
<path d="M28.375 5.893l-0.043-0.027-5.412-2.666-5.841 7.789 2.687 3.584c-0.080 1.351-0.653 2.627-1.611 3.584s-2.232 1.53-3.584 1.611l-3.584-2.687-7.788 5.841 2.666 5.412 0.027 0.043c0.141 0.227 0.338 0.415 0.572 0.545s0.497 0.197 0.765 0.197h1.396c2.691 0 5.355-0.53 7.841-1.56s4.745-2.539 6.647-4.442 3.412-4.161 4.442-6.647c1.030-2.486 1.56-5.15 1.56-7.841v-1.397c0.001-0.268-0.067-0.531-0.197-0.765s-0.317-0.431-0.545-0.572zM27.116 8.627c0 10.195-8.295 18.49-18.49 18.49h-1.13l-1.769-3.591 5.261-3.946 2.929 2.197h0.333c1.995-0.002 3.908-0.796 5.319-2.207s2.204-3.323 2.207-5.319v-0.333l-2.197-2.929 3.945-5.261 3.591 1.769v1.13z"></path>
</symbol>
<symbol id="icon-mail" viewBox="0 0 32 32">
<path d="M28 6h-24c-0.53 0-1.039 0.211-1.414 0.586s-0.586 0.884-0.586 1.414v16c0 0.53 0.211 1.039 0.586 1.414s0.884 0.586 1.414 0.586h24c0.53 0 1.039-0.211 1.414-0.586s0.586-0.884 0.586-1.414v-16c0-0.53-0.211-1.039-0.586-1.414s-0.884-0.586-1.414-0.586zM25.8 8l-9.8 6.78-9.8-6.78h19.6zM4 24v-15.090l11.43 7.91c0.167 0.116 0.366 0.178 0.57 0.178s0.403-0.062 0.57-0.178l11.43-7.91v15.090h-24z"></path>
</symbol>
<symbol id="icon-instagram" viewBox="0 0 32 32">
<path d="M15.999 9.836c-1.635 0-3.203 0.65-4.36 1.806s-1.806 2.724-1.806 4.36c0 1.635 0.65 3.203 1.806 4.359s2.724 1.806 4.36 1.806c1.635 0 3.203-0.65 4.359-1.806s1.806-2.724 1.806-4.359c0-1.635-0.65-3.203-1.806-4.36s-2.724-1.806-4.359-1.806zM15.999 20.005c-1.062 0-2.081-0.422-2.832-1.173s-1.173-1.77-1.173-2.832c0-1.062 0.422-2.081 1.173-2.832s1.77-1.173 2.832-1.173c1.062 0 2.081 0.422 2.832 1.173s1.173 1.77 1.173 2.832-0.422 2.081-1.173 2.832c-0.751 0.751-1.77 1.173-2.832 1.173z"></path>
<path d="M22.408 11.047c0.794 0 1.437-0.644 1.437-1.437s-0.643-1.437-1.437-1.437c-0.794 0-1.437 0.644-1.437 1.437s0.644 1.437 1.437 1.437z"></path>
<path d="M27.378 8.148c-0.309-0.797-0.78-1.521-1.385-2.125s-1.329-1.076-2.126-1.384c-0.933-0.35-1.918-0.54-2.915-0.56-1.284-0.056-1.691-0.072-4.947-0.072s-3.673 0-4.947 0.072c-0.995 0.019-1.98 0.209-2.912 0.56-0.797 0.308-1.522 0.779-2.126 1.384s-1.076 1.328-1.384 2.126c-0.35 0.933-0.539 1.918-0.559 2.915-0.057 1.283-0.075 1.689-0.075 4.947 0 3.256 0 3.671 0.075 4.947 0.020 0.997 0.208 1.981 0.559 2.916 0.309 0.797 0.781 1.521 1.386 2.125s1.329 1.076 2.126 1.384c0.93 0.364 1.915 0.567 2.913 0.6 1.284 0.056 1.691 0.073 4.947 0.073s3.673 0 4.947-0.073c0.996-0.020 1.982-0.209 2.915-0.559 0.797-0.309 1.521-0.781 2.125-1.385s1.076-1.328 1.385-2.125c0.351-0.933 0.539-1.917 0.559-2.915 0.057-1.283 0.075-1.689 0.075-4.947s0-3.671-0.075-4.947c-0.016-1.010-0.205-2.010-0.561-2.956zM25.754 20.857c-0.009 0.768-0.149 1.53-0.415 2.251-0.2 0.518-0.507 0.989-0.9 1.382s-0.864 0.699-1.383 0.899c-0.713 0.265-1.466 0.405-2.227 0.415-1.267 0.059-1.624 0.073-4.872 0.073-3.251 0-3.583 0-4.873-0.073-0.76-0.009-1.513-0.15-2.225-0.415-0.52-0.199-0.993-0.504-1.388-0.897s-0.703-0.864-0.904-1.384c-0.262-0.713-0.402-1.466-0.415-2.225-0.057-1.267-0.071-1.624-0.071-4.872 0-3.249 0-3.581 0.071-4.873 0.009-0.768 0.149-1.529 0.415-2.249 0.407-1.052 1.24-1.88 2.292-2.283 0.713-0.264 1.465-0.404 2.225-0.415 1.268-0.057 1.624-0.073 4.873-0.073s3.583 0 4.872 0.073c0.761 0.009 1.514 0.149 2.227 0.415 0.519 0.2 0.989 0.507 1.383 0.9s0.7 0.864 0.9 1.383c0.262 0.713 0.402 1.466 0.415 2.225 0.057 1.268 0.072 1.624 0.072 4.873 0 3.248 0 3.597-0.057 4.872h-0.015v-0.001z"></path>
</symbol>
<symbol id="icon-arrow-right" viewBox="0 0 32 32">
<path fill="#80233a" style="fill: var(--color1, #80233a)" d="M9.686 4.752l9.744 9.996-9.744 9.996c-0.174 0.179-0.272 0.418-0.272 0.668s0.098 0.489 0.272 0.668c0.085 0.087 0.186 0.155 0.297 0.202s0.231 0.071 0.353 0.071 0.241-0.024 0.353-0.071c0.112-0.047 0.213-0.116 0.297-0.202l10.368-10.634c0.182-0.187 0.284-0.437 0.284-0.698s-0.102-0.511-0.284-0.698l-10.366-10.634c-0.085-0.087-0.186-0.156-0.298-0.204s-0.232-0.072-0.354-0.072c-0.122 0-0.242 0.024-0.354 0.072s-0.213 0.116-0.298 0.204c-0.174 0.179-0.272 0.418-0.272 0.668s0.098 0.489 0.272 0.668h0.002z"></path>
</symbol>
<symbol id="icon-arrow-left" viewBox="0 0 32 32">
<path fill="#80233a" style="fill: var(--color1, #80233a)" d="M22.314 27.248l-9.744-9.996 9.744-9.996c0.174-0.179 0.272-0.418 0.272-0.668s-0.098-0.489-0.272-0.668c-0.085-0.086-0.186-0.155-0.297-0.202s-0.231-0.071-0.352-0.071c-0.121 0-0.241 0.024-0.353 0.071s-0.213 0.116-0.297 0.202l-10.368 10.634c-0.182 0.187-0.284 0.437-0.284 0.698s0.102 0.511 0.284 0.698l10.366 10.634c0.085 0.087 0.186 0.156 0.298 0.204s0.232 0.072 0.354 0.072c0.122 0 0.242-0.024 0.354-0.072s0.213-0.116 0.298-0.204c0.174-0.179 0.272-0.418 0.272-0.668s-0.098-0.489-0.272-0.668h-0.002z"></path>
</symbol>
<symbol id="icon-quotes-down" viewBox="0 0 41 32">
<path fill="#f4f2f2" style="fill: var(--color10, #f4f2f2)" d="M17.702 0.766v8.074c0 2.452-0.449 5.069-1.346 7.85-0.867 2.751-2.153 5.428-3.858 8.029-1.675 2.572-3.708 4.815-6.1 6.729l-5.742-4.665c1.884-2.691 3.514-5.488 4.889-8.388 1.405-2.931 2.108-6.056 2.108-9.375v-8.254h10.048zM40.668 0.766v8.074c0 2.452-0.449 5.069-1.346 7.85-0.867 2.751-2.153 5.428-3.858 8.029-1.675 2.572-3.708 4.815-6.1 6.729l-5.742-4.665c1.884-2.691 3.514-5.488 4.889-8.388 1.406-2.931 2.108-6.056 2.108-9.375v-8.254h10.048z"></path>
</symbol>
<symbol id="icon-quotes-up" viewBox="0 0 42 32">
<path fill="#f4f2f2" style="fill: var(--color10, #f4f2f2)" d="M0.588 32v-8.292c0-2.518 0.445-5.19 1.336-8.016 0.921-2.856 2.242-5.605 3.962-8.246 1.751-2.672 3.854-4.991 6.311-6.956l5.897 4.791c-1.935 2.764-3.624 5.651-5.067 8.661-1.413 2.979-2.119 6.173-2.119 9.582v8.477h-10.319zM24.175 32v-8.292c0-2.518 0.445-5.19 1.336-8.016 0.921-2.856 2.242-5.605 3.962-8.246 1.751-2.672 3.854-4.991 6.311-6.956l5.897 4.791c-1.935 2.764-3.624 5.651-5.068 8.661-1.413 2.979-2.119 6.173-2.119 9.582v8.477h-10.319z"></path>
</symbol>
<symbol id="icon-product-bag" viewBox="0 0 32 32">
<path fill="#80233a" style="fill: var(--color1, #80233a)" d="M16 2c1.326 0 2.598 0.527 3.536 1.464s1.465 2.209 1.465 3.536v1h-10v-1c0-1.326 0.527-2.598 1.464-3.536s2.209-1.464 3.536-1.464zM23 8v-1c0-1.857-0.737-3.637-2.050-4.95s-3.093-2.050-4.95-2.050-3.637 0.738-4.95 2.050c-1.313 1.313-2.050 3.093-2.050 4.95v1h-7v20c0 1.061 0.421 2.078 1.172 2.828s1.768 1.172 2.828 1.172h20c1.061 0 2.078-0.421 2.828-1.172s1.172-1.767 1.172-2.828v-20h-7zM4 10h24v18c0 0.53-0.211 1.039-0.586 1.414s-0.884 0.586-1.414 0.586h-20c-0.53 0-1.039-0.211-1.414-0.586s-0.586-0.884-0.586-1.414v-18z"></path>
<path fill="transparent" d="M4 10h24v18c0 0.53-0.211 1.039-0.586 1.414s-0.884 0.586-1.414 0.586h-20c-0.53 0-1.039-0.211-1.414-0.586s-0.586-0.884-0.586-1.414v-18z"></path>
</symbol>
<symbol id="icon-gourmet" viewBox="0 0 30 32">
<path fill="#80233a" style="fill: var(--color1, #80233a)" d="M28.138 6.1c-1.022-1.341-2.506-2.22-4.174-2.48-0.727-0.113-1.459-0.108-2.192 0.017-1.626-2.203-4.155-3.531-6.846-3.531-2.686 0-5.216 1.329-6.846 3.531-0.732-0.126-1.464-0.13-2.192-0.017-1.669 0.26-3.152 1.143-4.174 2.48-1.246 1.627-1.702 3.782-1.26 5.912 0.651 3.125 3.086 5.505 5.934 6.132-0.005 0.022-0.010 0.048-0.010 0.074v10.806c0 0.052 0.010 0.104 0.033 0.147-0.019 0.069-0.033 0.139-0.033 0.212 0 0.688 0.918 1.203 2.81 1.58 1.616 0.325 3.765 0.502 6.038 0.502 2.277 0 4.421-0.178 6.038-0.502 1.892-0.376 2.81-0.896 2.81-1.58 0-0.074-0.010-0.143-0.033-0.212 0.019-0.048 0.033-0.095 0.033-0.147l-0.001-10.806c0-0.078-0.029-0.156-0.071-0.216 2.605-0.796 4.778-3.068 5.387-5.989 0.452-2.129-0.010-4.284-1.25-5.912v-0zM20.93 30.204c-1.541 0.29-3.566 0.454-5.7 0.454s-4.16-0.16-5.7-0.454c-1.731-0.329-2.22-0.705-2.263-0.818 0.043-0.113 0.533-0.493 2.263-0.818 1.54-0.29 3.566-0.454 5.7-0.454s4.16 0.16 5.7 0.454c1.73 0.329 2.22 0.705 2.263 0.818-0.043 0.113-0.532 0.489-2.263 0.818zM23.193 18.217v10.165c-0.461-0.221-1.098-0.411-1.925-0.576-1.616-0.325-3.765-0.502-6.038-0.502-2.277 0-4.421 0.177-6.038 0.502-0.822 0.165-1.464 0.355-1.925 0.576l0-10.1c0.204 0.017 0.409 0.030 0.613 0.030 0.342 0 0.689-0.026 1.036-0.078 0.799-0.126 1.555-0.389 2.244-0.788 1.155 0.584 2.439 0.904 3.761 0.904 1.327 0 2.605-0.316 3.761-0.904 0.689 0.398 1.445 0.662 2.244 0.788 0.347 0.052 0.694 0.078 1.036 0.078 0.414 0 0.822-0.039 1.227-0.113 0.009 0.005 0.004 0.013 0.004 0.018h-0zM28.523 11.86c-0.747 3.596-4.089 6.093-7.441 5.574-0.547-0.087-1.065-0.247-1.555-0.48 0.019-0.013 0.033-0.026 0.052-0.035 0.052-0.035 0.104-0.069 0.157-0.108 0.033-0.026 0.067-0.048 0.104-0.074s0.076-0.056 0.114-0.087c0.043-0.035 0.086-0.065 0.128-0.1 0.029-0.022 0.052-0.039 0.076-0.061 0.052-0.043 0.104-0.082 0.152-0.126 0.014-0.013 0.029-0.026 0.043-0.039 0.062-0.052 0.119-0.104 0.176-0.156l0.005-0.004c0.533-0.476 1.003-1.017 1.412-1.619 0.014-0.017 0.024-0.039 0.038-0.056 0.033-0.048 0.067-0.1 0.095-0.147 0.014-0.022 0.029-0.048 0.047-0.069 0-0.004 0.005-0.004 0.005-0.009 0.181-0.286 0.342-0.58 0.494-0.887 0.1-0.203 0-0.441-0.228-0.532-0.224-0.091-0.485 0-0.585 0.208-0.689 1.415-1.773 2.614-3.067 3.402-0.033 0.017-0.062 0.039-0.095 0.056-0.043 0.026-0.086 0.052-0.128 0.074-1.098 0.615-2.33 0.952-3.608 0.952s-2.515-0.337-3.609-0.952c-0.043-0.022-0.081-0.048-0.124-0.074-0.033-0.022-0.067-0.039-0.1-0.061-1.293-0.788-2.377-1.986-3.067-3.402-0.1-0.203-0.361-0.294-0.585-0.208-0.223 0.091-0.323 0.329-0.228 0.532 0.147 0.307 0.314 0.602 0.494 0.887 0 0.004 0 0.004 0.005 0.009 0.014 0.022 0.029 0.048 0.043 0.069 0.033 0.052 0.067 0.1 0.1 0.147 0.014 0.017 0.024 0.039 0.038 0.056 0.409 0.602 0.884 1.143 1.417 1.623 0.062 0.052 0.119 0.104 0.181 0.156 0.014 0.013 0.029 0.022 0.038 0.035 0.052 0.043 0.104 0.087 0.157 0.13 0.024 0.022 0.047 0.039 0.076 0.061 0.043 0.035 0.090 0.069 0.133 0.104 0.038 0.026 0.071 0.056 0.109 0.082s0.071 0.052 0.11 0.078c0.052 0.035 0.1 0.069 0.152 0.104 0.019 0.013 0.038 0.026 0.057 0.039-0.49 0.234-1.008 0.394-1.555 0.48-3.352 0.519-6.694-1.978-7.441-5.574-0.399-1.917 0.010-3.847 1.117-5.301 0.884-1.16 2.163-1.921 3.594-2.147 0.509-0.078 1.027-0.091 1.545-0.030-0.057 0.091-0.109 0.186-0.162 0.277-0.109 0.199-0.019 0.441 0.2 0.541s0.485 0.017 0.594-0.182c1.393-2.536 3.965-4.111 6.708-4.111s5.315 1.575 6.708 4.111c0.076 0.143 0.233 0.225 0.399 0.225 0.067 0 0.133-0.013 0.2-0.043 0.218-0.1 0.309-0.342 0.2-0.541-0.052-0.095-0.104-0.186-0.161-0.277 0.518-0.056 1.032-0.048 1.545 0.030 1.431 0.221 2.71 0.987 3.594 2.147 1.118 1.455 1.522 3.389 1.123 5.302l-0 0z"></path>
</symbol>
<symbol id="icon-gift" viewBox="0 0 32 32">
<path fill="#80233a" style="fill: var(--color1, #80233a)" d="M26.965 9.719h-0.751c0.060-0.104 0.12-0.207 0.173-0.31 0.16-0.293 0.323-0.606 0.421-0.893 0.968-2.433 0.106-5.275-2.046-6.756-1.961-1.354-4.501-1.354-6.472 0-0.792 0.548-1.407 1.258-1.827 2.109-0.185 0.371-0.336 0.783-0.465 1.255-0.129-0.472-0.28-0.885-0.464-1.253-0.421-0.853-1.036-1.563-1.828-2.112-1.966-1.358-4.505-1.358-6.471-0.001-2.154 1.482-3.015 4.324-2.051 6.749 0.102 0.268 0.244 0.572 0.42 0.892 0.056 0.106 0.116 0.213 0.178 0.319l-0.75 0c-2.474 0-4.486 2.012-4.486 4.486v1.373c0 1.337 0.849 2.476 2.034 2.916l1.438 9.351c0.339 2.204 2.204 3.804 4.434 3.804h15.089c2.229 0 4.094-1.6 4.434-3.804l1.439-9.351c1.186-0.44 2.034-1.579 2.034-2.916v-1.373c0-2.474-2.012-4.486-4.485-4.486h0zM17.357 4.313c0.345-0.699 0.851-1.282 1.5-1.732 1.626-1.117 3.722-1.117 5.339-0 1.774 1.221 2.483 3.562 1.678 5.589-0.082 0.238-0.222 0.506-0.366 0.768-0.101 0.193-0.22 0.388-0.34 0.588l-0.097 0.147c-0.010 0.015-0.021 0.030-0.030 0.045h-8.544v-0.504c0-1.072 0.102-2.135 0.303-3.158 0.143-0.717 0.319-1.271 0.555-1.744h0zM18.99 17.693h-5.981v-6.977h5.981v6.977zM6.928 9.675l-0.086-0.132c-0.121-0.199-0.247-0.406-0.356-0.614-0.158-0.288-0.28-0.549-0.369-0.782-0.797-2.005-0.088-4.346 1.687-5.567 1.621-1.12 3.717-1.12 5.337-0 0.65 0.451 1.156 1.034 1.502 1.735 0.234 0.469 0.411 1.023 0.555 1.74 0.201 1.024 0.303 2.087 0.303 3.159v0.504l-8.544-0c-0.009-0.014-0.020-0.028-0.029-0.043v0zM1.546 15.577v-1.373c0-1.924 1.565-3.489 3.489-3.489h6.977v6.978l-8.351 0c-1.167-0-2.115-0.949-2.115-2.116l0-0zM5.007 27.693l-1.385-9.004h8.888v11.962h-4.055c-1.734 0-3.185-1.244-3.448-2.958l-0 0zM13.507 30.651v-11.962h4.984v11.962h-4.984zM28.378 18.689l-1.385 9.004c-0.264 1.714-1.715 2.958-3.448 2.958h-4.056v-11.962l8.89-0zM30.454 15.577c0 1.167-0.949 2.116-2.116 2.116l-8.352 0v-6.978h6.979c1.924 0 3.489 1.565 3.489 3.489l-0 1.373z"></path>
</symbol>
<symbol id="icon-heart" viewBox="0 0 31 32">
<path fill="#80233a" style="fill: var(--color1, #80233a)" d="M27.286 7.057c-4.024-2.431-8.125-1.23-9.944-0.464 0.261-2.366-0.892-3.828-1.987-4.667v0c-1.057-0.798-2.338-1.244-3.662-1.274-3.566-0.122-6.372 0.831-8.352 2.818-3.162 3.173-3.029 7.816-3.023 7.99v18.881c0.001 0.252 0.102 0.493 0.281 0.671s0.421 0.276 0.673 0.275h0.026c0.774-0.029 19.105-0.774 27.252-5.092h0c0.775-0.416 1.423-1.036 1.872-1.792s0.684-1.622 0.678-2.502v-8.781c0.070-2.543-1.756-4.815-3.815-6.062l0-0zM4.087 4.203c1.668-1.671 4.032-2.517 7.033-2.517 0.177 0 0.358 0 0.542 0.009 1.106 0.028 2.176 0.398 3.062 1.058 1.451 1.107 1.924 2.662 1.414 4.621-0.053 0.203 0.021 0.418 0.188 0.546s0.394 0.142 0.576 0.038c0.050-0.029 5.107-2.867 9.846-0.006 1.955 1.181 3.792 3.559 3.195 6.002-0.701 2.878-5.287 7.937-28.119 9.446l-0.464 0.027v-11.987c0-0.042-0.116-4.394 2.727-7.238l0-0zM30.059 21.903c0.006 0.691-0.177 1.37-0.529 1.964s-0.859 1.082-1.467 1.409c-7.642 4.054-25.241 4.904-26.696 4.967v-5.766l0.526-0.031c18.686-1.238 25.798-4.875 28.171-8.293l-0.004 5.75z"></path>
<path fill="#80233a" style="fill: var(--color1, #80233a)" d="M6.278 21.973c0.197 0 0.377-0.11 0.465-0.286s0.071-0.386-0.046-0.544c-2.94-3.986-2.547-4.596-2.529-4.62 0.304-0.403 3.126 0.645 4.643 1.207 1.832 0.679 3.726 1.383 5.334 1.643 0.829 0.135 1.716 0.187 2.024-0.437 0.415-0.84-0.65-1.897-3.099-4.21-2.095-1.978-4.703-4.44-5.175-6.19-0.050-0.187-0.114-0.518 0.029-0.631 0.68-0.537 4.237 0.347 12.018 4.602 2.641 1.445 6.546 1.302 6.711 1.296h-0c0.287-0.012 0.51-0.255 0.499-0.542-0.003-0.139-0.063-0.271-0.165-0.365s-0.238-0.143-0.377-0.135c-0.037 0-3.778 0.138-6.169-1.169-7.396-4.044-11.825-5.559-13.163-4.507-0.322 0.253-0.651 0.757-0.391 1.721 0.549 2.039 3.162 4.506 5.466 6.682 1.065 1.006 2.484 2.345 2.796 2.927h0c-0.281 0.007-0.562-0.015-0.838-0.068-1.507-0.245-3.354-0.929-5.138-1.592-2.94-1.092-5.066-1.881-5.837-0.857-0.547 0.725-0.327 2 2.522 5.865l-0 0c0.099 0.132 0.254 0.208 0.419 0.207l0 0z"></path>
</symbol>
<symbol id="icon-delivery" viewBox="0 0 48 32">
<path fill="#80233a" style="fill: var(--color1, #80233a)" d="M35.118 9.771c-0.298 0-0.539 0.241-0.539 0.539v5.249c0 0.297 0.241 0.539 0.539 0.539h7.413c0.202 0 0.386-0.112 0.479-0.292s0.077-0.395-0.039-0.56l-3.734-5.249c-0.101-0.142-0.265-0.227-0.439-0.227h-3.68zM35.657 10.849h2.862l2.967 4.171h-5.829v-4.171h0z"></path>
<path fill="#80233a" style="fill: var(--color1, #80233a)" d="M2.962 0c-1.628 0-2.962 1.326-2.962 2.942v19.067c0 1.617 1.335 2.942 2.962 2.942h3.87c0.37 2.035 2.167 3.589 4.323 3.589 2.155 0 3.954-1.553 4.325-3.589h20.216c0.37 2.036 2.171 3.589 4.325 3.589s3.954-1.554 4.325-3.589h0.882c1.285 0 2.335-1.049 2.335-2.319v-7.029h0c0.010-0.079 0.003-0.159-0.021-0.234-0.003-0.011-0.007-0.023-0.011-0.034h-0.001c0 0 0-0-0-0-0.025-0.070-0.064-0.133-0.114-0.188l-5.947-8.196c-0.104-0.143-0.27-0.228-0.448-0.228l-7.713-0.005v-3.774c0-1.617-1.335-2.942-2.962-2.942l-27.383-0.002zM2.962 1.099h27.383c1.026 0 1.856 0.825 1.856 1.844v20.911h-16.664c-0.167-2.258-2.072-4.047-4.382-4.047s-4.215 1.789-4.382 4.047h-3.811c-1.026 0-1.856-0.825-1.856-1.844v-19.067c0-1.019 0.83-1.844 1.856-1.844l-0-0zM33.308 7.815l7.429 0.005 5.72 7.882v6.93c0 0.671-0.548 1.221-1.229 1.221h-0.824c-0.167-2.258-2.072-4.047-4.383-4.047s-4.215 1.789-4.382 4.047h-2.331l-0-16.038zM11.156 20.904c1.821 0 3.288 1.456 3.288 3.272v0.061c-0.033 1.78-1.486 3.205-3.288 3.205-1.822 0-3.283-1.451-3.288-3.255v-0.009c0-1.815 1.467-3.272 3.288-3.272v-0.002zM40.022 20.904c1.821 0 3.288 1.456 3.288 3.272 0 1.809-1.467 3.266-3.288 3.266s-3.288-1.457-3.288-3.266c0-1.815 1.467-3.272 3.288-3.272z"></path>
<path fill="#80233a" style="fill: var(--color1, #80233a)" d="M17.192 7.752c-0.144-0.002-0.284 0.054-0.386 0.155s-0.161 0.24-0.161 0.384 0.058 0.283 0.161 0.384c0.103 0.102 0.242 0.157 0.386 0.155h10.573c0.144 0.002 0.284-0.054 0.386-0.155s0.161-0.24 0.161-0.384-0.058-0.282-0.161-0.384c-0.103-0.101-0.242-0.157-0.386-0.155h-10.573z"></path>
<path fill="#80233a" style="fill: var(--color1, #80233a)" d="M12.355 12.59c-0.144-0.002-0.284 0.054-0.386 0.155s-0.161 0.24-0.161 0.384c0 0.144 0.058 0.283 0.161 0.384s0.242 0.157 0.386 0.155h15.411c0.144 0.002 0.284-0.054 0.386-0.155s0.161-0.239 0.161-0.384c0-0.144-0.058-0.282-0.161-0.384s-0.242-0.158-0.386-0.155h-15.411z"></path>
<path fill="#80233a" style="fill: var(--color1, #80233a)" d="M2.344 30.248c-0.144-0.002-0.284 0.054-0.386 0.155s-0.161 0.24-0.161 0.384c0 0.144 0.058 0.283 0.161 0.384s0.242 0.157 0.386 0.155h40.955c0.144 0.002 0.283-0.054 0.386-0.155s0.161-0.24 0.161-0.384c0-0.144-0.058-0.282-0.161-0.384s-0.242-0.157-0.386-0.155h-40.955z"></path>
</symbol>
<symbol id="icon-arrow-down" viewBox="0 0 59 32">
<path d="M52.46 0.666l-24.276 23.664-24.276-23.664c-0.434-0.424-1.016-0.661-1.622-0.661s-1.189 0.237-1.622 0.661c-0.21 0.206-0.377 0.451-0.491 0.722s-0.173 0.562-0.173 0.856c0 0.294 0.059 0.585 0.173 0.856s0.281 0.517 0.491 0.722l25.825 25.179c0.454 0.442 1.062 0.689 1.695 0.689s1.242-0.247 1.695-0.689l25.826-25.175c0.211-0.206 0.379-0.452 0.494-0.724s0.174-0.564 0.174-0.859c0-0.295-0.059-0.587-0.174-0.859s-0.283-0.518-0.494-0.724c-0.434-0.424-1.016-0.661-1.622-0.661s-1.189 0.237-1.622 0.661v0.005z"></path>
</symbol>
<symbol id="icon-header-bag" viewBox="0 0 29 32">
<path fill="#80233a" style="fill: var(--color1, #80233a)" d="M14.4 2c1.364 0 2.672 0.527 3.636 1.464s1.506 2.209 1.506 3.536v1h-10.286v-1c0-1.326 0.542-2.598 1.506-3.536s2.273-1.464 3.637-1.464zM21.6 8v-1c0-1.857-0.759-3.637-2.109-4.95s-3.182-2.050-5.091-2.050c-1.91 0-3.741 0.738-5.091 2.050s-2.109 3.093-2.109 4.95v1h-7.2v20c0 1.061 0.433 2.078 1.205 2.828s1.818 1.172 2.909 1.172h20.571c1.091 0 2.138-0.421 2.909-1.172s1.205-1.768 1.205-2.828v-20h-7.2zM2.057 10h24.686v18c0 0.53-0.217 1.039-0.603 1.414s-0.909 0.586-1.455 0.586h-20.571c-0.546 0-1.069-0.211-1.455-0.586s-0.603-0.884-0.603-1.414v-18z"></path>
</symbol>
<symbol id="icon-person" viewBox="0 0 29 32">
<path fill="#80233a" style="fill: var(--color1, #80233a)" d="M18.563 17.485c2.976-1.542 5.015-4.646 5.015-8.222 0-5.106-4.155-9.263-9.263-9.263s-9.263 4.157-9.263 9.263c0 3.575 2.039 6.68 5.015 8.222-5.826 1.814-10.068 7.257-10.068 13.673v0.842h28.632v-0.842c0-6.415-4.243-11.859-10.068-13.673h-0.001zM6.736 9.263c0-4.179 3.4-7.579 7.579-7.579s7.579 3.4 7.579 7.579c0 4.179-3.4 7.579-7.579 7.579s-7.579-3.4-7.579-7.579zM1.712 30.315c0.435-6.573 5.922-11.789 12.603-11.789s12.169 5.216 12.603 11.789h-25.205z"></path>
</symbol>
<symbol id="icon-search" viewBox="0 0 30 32">
<path d="M30.016 30.185l-8.262-8.573c4.337-4.723 4.578-12.143 0.348-17.154-2.391-2.833-5.864-4.458-9.531-4.458-3.010 0-5.925 1.106-8.207 3.114-5.255 4.622-5.848 12.744-1.321 18.105 2.393 2.834 5.868 4.46 9.535 4.46 2.759 0 5.433-0.939 7.62-2.642 0.002 0.002 0.002 0.005 0.004 0.007l8.324 8.637c0.204 0.213 0.475 0.319 0.745 0.319 0.264 0 0.53-0.102 0.733-0.306 0.411-0.414 0.418-1.089 0.012-1.508zM12.578 23.545c-2.948 0-5.877-1.261-7.952-3.719-3.781-4.478-3.288-11.235 1.103-15.097 1.981-1.742 4.417-2.596 6.842-2.596 2.946-0 5.875 1.26 7.948 3.718 3.782 4.48 3.29 11.237-1.097 15.098-1.982 1.743-4.419 2.596-6.843 2.596z"></path>
</symbol>
</defs>
</svg>
